<?xml version="1.0" encoding="UTF-8"?>
<svg version="1.1" xmlns="http://www.w3.org/2000/svg" width="512" height="512">
<path d="M0 0 C0.67153107 -0.01044342 1.34306213 -0.02088684 2.03494263 -0.03164673 C17.33323869 -0.2179113 17.33323869 -0.2179113 22.6875 4.5 C27.24002159 11.48933647 29.33005971 19.4309473 31.41796875 27.4140625 C31.76467453 28.70669048 32.11238014 29.99905063 32.46098328 31.29116821 C33.21383633 34.08966768 33.95996359 36.88984163 34.7008667 39.69152832 C35.89616206 44.2109754 37.10635975 48.72635048 38.31884766 53.24121094 C39.64360945 58.17715108 40.9671055 63.11341883 42.28564453 68.05102539 C47.45660036 87.41355213 52.70224875 106.75578857 57.94650555 126.09856606 C59.95512038 133.50732077 61.96100894 140.91680937 63.96557617 148.32666016 C64.77847903 151.33054525 65.59145042 154.33441179 66.404459 157.33826828 C66.91057563 159.20862216 67.41651304 161.07902455 67.92224693 162.94948196 C68.39676818 164.70434813 68.871654 166.45911577 69.3469305 168.21377754 C69.80007347 169.88808503 70.25192139 171.56274364 70.70237827 173.2377758 C71.80453138 177.32046728 72.94030434 181.38874144 74.14068604 185.44372559 C74.49108287 186.64568636 74.49108287 186.64568636 74.84855843 187.87192917 C75.28563722 189.36523546 75.73199922 190.8558756 76.19024467 192.34282303 C77.61752022 197.25306522 78.64116465 202.40491952 77.6875 207.5 C76.11768814 209.41066978 74.90104167 210.39322916 72.6875 211.5 C70.57195889 211.59573927 68.453626 211.63193051 66.3359375 211.640625 C41.78900563 211.93249217 19.63597369 215.32255079 -3.3125 224.5 C-4.02970215 224.78681641 -4.7469043 225.07363281 -5.48583984 225.36914062 C-24.13125347 232.98021479 -41.84925442 242.92180943 -59.5 252.5625 C-60.82837891 253.28796021 -60.82837891 253.28796021 -62.18359375 254.02807617 C-66.83639177 256.57637916 -71.47336315 259.15033064 -76.09765625 261.75 C-94.77251265 272.17049613 -114.34997259 281.92806841 -135.24316406 286.99707031 C-136.66566716 287.34279428 -138.08421533 287.70507844 -139.49902344 288.08105469 C-150.51471989 290.98042005 -161.17457155 291.87689557 -172.5625 291.9375 C-173.80032227 291.9475708 -175.03814453 291.9576416 -176.31347656 291.96801758 C-182.97098751 291.90395062 -188.39046715 291.66868952 -194.3125 288.5 C-198.14610862 284.46115208 -200.1213407 281.19340201 -201.80102539 275.81005859 C-202.00448861 275.16448187 -202.20795183 274.51890514 -202.4175806 273.85376549 C-205.01201275 265.48325185 -207.24831982 257.00752471 -209.49609375 248.5390625 C-209.98935411 246.6950275 -210.48306481 244.85111291 -210.97718811 243.00730896 C-212.02752916 239.08490082 -213.07519215 235.16179198 -214.12060547 231.23806763 C-216.60919198 221.89803902 -219.11040316 212.56138811 -221.61084366 203.22452736 C-222.18163078 201.09285082 -222.75223482 198.96112524 -223.32265854 196.82935143 C-227.45236697 181.39620142 -231.61676273 165.97285743 -235.81640625 150.55859375 C-236.07325132 149.61551361 -236.3300964 148.67243347 -236.59472466 147.70077515 C-239.04953027 138.68782235 -241.50756365 129.675761 -243.97217464 120.66548443 C-244.86802681 117.38813792 -245.76158662 114.11016941 -246.65460014 110.83204842 C-247.06644212 109.3225027 -247.47935989 107.81325001 -247.89344978 106.30431938 C-248.45702871 104.25055448 -249.0170059 102.19583917 -249.57617188 100.14086914 C-250.04597473 98.42318077 -250.04597473 98.42318077 -250.52526855 96.67079163 C-252.92963951 86.98652488 -252.92963951 86.98652488 -250.3125 82.5 C-246.93481428 80.24837229 -244.01169922 80.26028117 -240.01953125 80.26171875 C-238.132948 80.24310791 -238.132948 80.24310791 -236.20825195 80.22412109 C-235.54266266 80.2191864 -234.87707336 80.21425171 -234.1913147 80.20916748 C-190.45496366 79.75054589 -154.10422636 61.15623913 -116.5 40.625 C-115.15591064 39.89168457 -115.15591064 39.89168457 -113.78466797 39.14355469 C-108.86690138 36.4560697 -103.96165516 33.74782066 -99.06640625 31.01953125 C-79.51759407 20.20469771 -59.09880554 9.95186946 -37.3125 4.5 C-36.58482422 4.30825195 -35.85714844 4.11650391 -35.10742188 3.91894531 C-23.46924431 0.94388157 -11.96660166 0.09089448 0 0 Z M-51.3125 35.5 C-50.73983736 41.92386829 -49.60847036 47.8533602 -47.87890625 54.05859375 C-47.64090805 54.92895767 -47.40290985 55.79932159 -47.15769958 56.69606018 C-46.65756884 58.5179453 -46.15403183 60.33889854 -45.6472168 62.15893555 C-44.87109475 64.95155175 -44.10971755 67.74790972 -43.34960938 70.54492188 C-42.86024737 72.32055315 -42.37004323 74.09595261 -41.87890625 75.87109375 C-41.6517543 76.70748886 -41.42460236 77.54388397 -41.19056702 78.40562439 C-40.01571068 82.86648155 -40.01571068 82.86648155 -37.3125 86.5 C-36.51368408 86.25092896 -36.51368408 86.25092896 -35.69873047 85.99682617 C-18.24215732 80.58179493 -1.52859964 77.05771476 16.6875 75.5 C15.50301291 70.80696843 14.31249991 66.11551682 13.11694336 61.42529297 C12.71303567 59.83747384 12.31063324 58.24927086 11.90991211 56.66064453 C9.17433257 45.82129676 6.13774401 35.13407659 2.6875 24.5 C-15.5739913 24.5 -34.27446031 29.18569543 -51.3125 35.5 Z M-113.7734375 68.0703125 C-114.70736328 68.63089355 -115.64128906 69.19147461 -116.60351562 69.76904297 C-117.62123047 70.38150879 -118.63894531 70.99397461 -119.6875 71.625 C-133.20602999 79.65657273 -147.17304298 86.63523686 -161.3125 93.5 C-157.57388393 110.32307193 -152.90222236 126.89384385 -148.3125 143.5 C-140.87971072 141.27479905 -134.28474884 138.12594876 -127.4375 134.5 C-126.35210937 133.92910645 -125.26671875 133.35821289 -124.1484375 132.77001953 C-117.15103917 129.06497103 -110.19599698 125.287809 -103.3125 121.375 C-102.51215332 120.92640625 -101.71180664 120.4778125 -100.88720703 120.015625 C-100.16130371 119.59539062 -99.43540039 119.17515625 -98.6875 118.7421875 C-98.05585938 118.3797998 -97.42421875 118.01741211 -96.7734375 117.64404297 C-94.99534261 116.4684464 -94.99534261 116.4684464 -94.3125 113.5 C-94.66240966 111.23593478 -94.66240966 111.23593478 -95.39233398 108.75317383 C-95.78285194 107.31201958 -95.78285194 107.31201958 -96.18125916 105.8417511 C-96.61553978 104.29006477 -96.61553978 104.29006477 -97.05859375 102.70703125 C-97.34855728 101.64586594 -97.63852081 100.58470062 -97.93727112 99.49137878 C-98.86696077 96.09619621 -99.80833136 92.7043775 -100.75 89.3125 C-101.38163023 87.01388356 -102.01249938 84.71505783 -102.64257812 82.41601562 C-104.19038931 76.77488389 -105.74780782 71.13647127 -107.3125 65.5 C-110.06904878 65.5 -111.41911165 66.63653781 -113.7734375 68.0703125 Z M-46.7734375 90.82421875 C-47.87558594 91.35297607 -48.97773438 91.8817334 -50.11328125 92.42651367 C-51.29277344 93.00763916 -52.47226562 93.58876465 -53.6875 94.1875 C-54.585896 94.62493027 -54.585896 94.62493027 -55.50244141 95.07119751 C-68.09949808 101.20562287 -80.64318597 107.72045732 -92.3125 115.5 C-91.66448701 122.11983009 -90.19843807 128.32854157 -88.4765625 134.74609375 C-88.19654388 135.79781265 -87.91652527 136.84953156 -87.62802124 137.93312073 C-87.03748039 140.14166059 -86.44397357 142.34940929 -85.84765625 144.55639648 C-84.93476752 147.94765077 -84.04137753 151.34368067 -83.1484375 154.74023438 C-82.5714999 156.8883401 -81.99341555 159.03613823 -81.4140625 161.18359375 C-81.01545517 162.71311928 -81.01545517 162.71311928 -80.60879517 164.27354431 C-80.35197968 165.20864334 -80.09516418 166.14374237 -79.83056641 167.10717773 C-79.60930084 167.93354233 -79.38803528 168.75990692 -79.1600647 169.61131287 C-78.74052017 170.546213 -78.74052017 170.546213 -78.3125 171.5 C-75.38395646 172.84878037 -75.38395646 172.84878037 -72.9309082 171.45532227 C-72.00109131 170.91447998 -71.07127441 170.3736377 -70.11328125 169.81640625 C-69.0763916 169.22206787 -68.03950195 168.62772949 -66.97119141 168.01538086 C-65.86694824 167.37093018 -64.76270508 166.72647949 -63.625 166.0625 C-61.34918803 164.76034004 -59.07184362 163.4608547 -56.79296875 162.1640625 C-55.68228027 161.53145508 -54.5715918 160.89884766 -53.42724609 160.24707031 C-43.65961886 154.76837926 -33.51363015 150.1037943 -23.3125 145.5 C-24.80373761 139.77435549 -26.29716176 134.04928707 -27.79248047 128.32470703 C-28.29924417 126.38345179 -28.80544435 124.44204933 -29.31103516 122.50048828 C-30.74608196 116.99047689 -32.19283999 111.48380765 -33.65649414 105.98132324 C-34.26721337 103.67129537 -34.86394063 101.35804812 -35.45898438 99.04394531 C-35.79736328 97.77389648 -36.13574219 96.50384766 -36.484375 95.1953125 C-36.91121582 93.55973389 -36.91121582 93.55973389 -37.34667969 91.89111328 C-37.66540039 91.1020459 -37.98412109 90.31297852 -38.3125 89.5 C-42.19940013 88.20436662 -43.13962327 89.07172193 -46.7734375 90.82421875 Z M-22.3125 145.5 C-20.50732426 152.44426354 -18.69150315 159.38567889 -16.86816406 166.32519531 C-16.2488297 168.68750423 -15.63195818 171.05046024 -15.01757812 173.4140625 C-14.13534003 176.80641025 -13.24434388 180.19635143 -12.3515625 183.5859375 C-12.07752594 184.64743011 -11.80348938 185.70892273 -11.52114868 186.80258179 C-11.26102997 187.78344757 -11.00091125 188.76431335 -10.73291016 189.77490234 C-10.50640778 190.64094086 -10.2799054 191.50697937 -10.04653931 192.39926147 C-9.41925438 194.68276661 -9.41925438 194.68276661 -7.3125 196.5 C-6.1471875 196.11328125 -4.981875 195.7265625 -3.78125 195.328125 C12.74838492 190.01588239 29.42950081 187.16207027 46.6875 185.5 C44.85747479 178.55745696 43.02405205 171.61581774 41.18823242 164.67480469 C40.56374562 162.31205732 39.9400451 159.949102 39.31713867 157.5859375 C38.42311545 154.19476588 37.52629332 150.80434529 36.62890625 147.4140625 C36.3497084 146.35256989 36.07051056 145.29107727 35.78285217 144.19741821 C35.52265793 143.21655243 35.26246368 142.23568665 34.99438477 141.22509766 C34.76566177 140.35905914 34.53693878 139.49302063 34.30128479 138.60073853 C33.74610865 136.46853071 33.74610865 136.46853071 32.6875 134.5 C14.17583006 133.58959 -5.24800858 138.60771039 -22.3125 145.5 Z M-155.97216797 147.43066406 C-172.57192178 153.2421364 -188.80397823 156.11101497 -206.3125 157.5 C-203.61329878 169.34040551 -200.66217229 181.09854453 -197.47583008 192.81738281 C-196.98459699 194.63294594 -196.49907934 196.45006354 -196.01879883 198.26855469 C-195.31504554 200.93247691 -194.59509135 203.59151867 -193.87109375 206.25 C-193.5522245 207.47468994 -193.5522245 207.47468994 -193.22691345 208.72412109 C-192.68429414 210.67848472 -192.00969986 212.59529917 -191.3125 214.5 C-187.46953593 215.78098802 -184.19358442 215.27008891 -180.25 214.8125 C-179.45142578 214.72000977 -178.65285156 214.62751953 -177.83007812 214.53222656 C-165.67318912 213.0209584 -153.92436018 210.18492375 -142.25 206.5 C-141.46947266 206.26313477 -140.68894531 206.02626953 -139.88476562 205.78222656 C-137.46883672 205.02507221 -137.46883672 205.02507221 -134.3125 203.5 C-132.8641463 200.21598935 -133.5276185 197.7814558 -134.46826172 194.41186523 C-134.74540009 193.40079208 -135.02253845 192.38971893 -135.30807495 191.3480072 C-135.61633209 190.26250076 -135.92458923 189.17699432 -136.2421875 188.05859375 C-136.5519754 186.93937027 -136.86176331 185.82014679 -137.18093872 184.66700745 C-138.17401873 181.08789793 -139.1806741 177.5127642 -140.1875 173.9375 C-140.85894805 171.52433187 -141.52953157 169.11092301 -142.19921875 166.69726562 C-143.4269314 162.28295411 -144.65757329 157.86951176 -145.89794922 153.45874023 C-146.14745331 152.57145737 -146.3969574 151.6841745 -146.65402222 150.77000427 C-147.16708039 149.0013125 -147.7301342 147.24709741 -148.3125 145.5 C-151.079042 145.5 -153.38871339 146.52297959 -155.97216797 147.43066406 Z M-84.73046875 177.921875 C-85.6445752 178.44740967 -86.55868164 178.97294434 -87.50048828 179.5144043 C-88.98524658 180.37352417 -88.98524658 180.37352417 -90.5 181.25 C-98.89899424 186.05580243 -107.35599231 190.71524219 -115.9375 195.1875 C-116.90196045 195.6918457 -117.8664209 196.19619141 -118.86010742 196.71582031 C-122.96029784 198.8409524 -127.00075411 200.83381615 -131.3125 202.5 C-130.68644888 208.85782485 -129.30671763 214.76026952 -127.58984375 220.90625 C-127.32490616 221.8715564 -127.05996857 222.83686279 -126.78700256 223.8314209 C-125.94652638 226.88907216 -125.09839195 229.94453674 -124.25 233 C-123.67592352 235.08319319 -123.10235059 237.16652523 -122.52929688 239.25 C-121.12951924 244.33495395 -119.7234619 249.41813877 -118.3125 254.5 C-115.32434203 253.09494108 -112.33782687 251.68642223 -109.3515625 250.27734375 C-108.51761963 249.88526733 -107.68367676 249.49319092 -106.82446289 249.0892334 C-92.53251066 242.33890627 -78.86269859 234.62333558 -65.3125 226.5 C-65.93286618 220.40761862 -67.16702529 214.72138566 -68.78125 208.8203125 C-69.14180481 207.47935013 -69.14180481 207.47935013 -69.50964355 206.11129761 C-70.01480991 204.23660237 -70.52253877 202.36259592 -71.03271484 200.48925781 C-71.81544448 197.61418452 -72.59000429 194.73700352 -73.36328125 191.859375 C-73.85629855 190.03372656 -74.34977187 188.20820119 -74.84375 186.3828125 C-75.19221985 185.09070358 -75.19221985 185.09070358 -75.54772949 183.77249146 C-75.87311707 182.5801741 -75.87311707 182.5801741 -76.20507812 181.36376953 C-76.49034363 180.31408493 -76.49034363 180.31408493 -76.78137207 179.24319458 C-77.28529285 177.41515671 -77.28529285 177.41515671 -78.3125 175.5 C-81.02223097 175.5 -82.38596574 176.56101897 -84.73046875 177.921875 Z " fill="#000000" transform="translate(365.3125,-0.5)"/>
<path d="M0 0 C7.14233086 4.76155391 8.92302246 10.28173895 10.86450195 18.29589844 C11.26176389 19.85002064 11.26176389 19.85002064 11.66705132 21.43553925 C12.539594 24.86477799 13.38889238 28.29933472 14.23828125 31.734375 C14.85216553 34.16595666 15.4675338 36.59716409 16.08430481 39.02801514 C17.36946734 44.10503563 18.64491209 49.18435033 19.91217041 54.26586914 C21.71155699 61.48037661 23.53291574 68.68916222 25.36083984 75.89648438 C28.6163809 88.74475339 31.84840178 101.59886917 35.07747269 114.45381165 C37.95575368 125.90790251 40.84075074 137.36030454 43.7265625 148.8125 C44.04074945 150.05943886 44.35493641 151.30637772 44.67864418 152.5911026 C49.85239494 173.11928997 55.09544878 193.62855088 60.39189911 214.12535477 C66.60710635 238.18441732 72.69889106 262.27424626 78.765625 286.37109375 C78.96607949 287.16728481 79.16653398 287.96347587 79.37306285 288.78379393 C83.67447966 305.8697847 87.9709242 322.95702443 92.26376152 340.04517269 C93.62542956 345.46536872 94.98769467 350.88541465 96.35006464 356.30543429 C97.43855451 360.6362159 98.52605665 364.96724384 99.61270082 369.29848891 C100.28758965 371.98761588 100.96340134 374.67651044 101.63936257 377.36536801 C102.12073077 379.28164919 102.60083309 381.19824822 103.08091545 383.11485195 C104.55127505 388.96386838 106.05054838 394.80167811 107.62924194 400.62246704 C107.91190509 401.67204747 108.19456823 402.7216279 108.48579693 403.8030138 C109.00705914 405.72779076 109.53646868 407.650391 110.07625294 409.57005596 C112.13302522 417.17457037 113.16036054 423.99144738 109.125 431.109375 C106.85918223 434.15743938 104.38616489 435.82392209 100.8125 436.875 C95.4923417 437.61734767 91.26803041 437.56306892 86.375 435.25 C79.95072578 429.29579463 78.449242 422.87834851 76.390625 414.56640625 C76.05966527 413.26625129 75.72769413 411.96635345 75.39482117 410.66668701 C74.46822029 407.03605379 73.55649382 403.40181897 72.64695358 399.76688004 C71.64749034 395.7834504 70.63440458 391.80348307 69.62329102 387.82299805 C67.49716682 379.44234867 65.38533223 371.05814687 63.27717876 362.67296124 C61.21533953 354.47301451 59.14844826 346.27435031 57.07958984 338.07617188 C56.75221927 336.77886151 56.42485055 335.48155068 56.09748363 334.18423939 C55.59769797 332.20366352 55.09791186 330.22308776 54.59811801 328.24251395 C48.86121737 305.5078737 43.13370652 282.77087762 37.41215706 260.03236961 C31.29570768 235.72459127 25.16710752 211.41998061 19 187.125 C18.82759041 186.44574085 18.65518082 185.7664817 18.47754669 185.06663895 C16.95258006 179.05867875 15.42726414 173.05080729 13.90139771 167.04307556 C11.48179532 157.51579259 9.06671782 147.98736825 6.65372086 138.45841026 C6.03918158 136.03172023 5.4244973 133.60506696 4.80978394 131.17842102 C2.98292097 123.96605226 1.15693273 116.75346768 -0.66453743 109.53973484 C-1.64019942 105.67604175 -2.61671566 101.81256502 -3.59375 97.94921875 C-3.78506374 97.19269705 -3.97637749 96.43617535 -4.17348862 95.65672874 C-6.79820721 85.28457299 -9.4653266 74.92420176 -12.16745567 64.57195663 C-13.23779434 60.46582618 -14.30101912 56.35784642 -15.36430073 52.24988365 C-16.18976261 49.06431745 -17.02243943 45.88089945 -17.86508179 42.6998291 C-18.78102469 39.24190705 -19.67933531 35.77982787 -20.57421875 32.31640625 C-20.975802 30.83102104 -20.975802 30.83102104 -21.38549805 29.31562805 C-23.37183873 21.51723017 -24.94107253 12.96666925 -21.6875 5.375 C-15.44837825 -0.86412175 -8.49819639 -2.99936343 0 0 Z " fill="#000000" transform="translate(92.1875,75.125)"/>
</svg>
